<svg xmlns="http://www.w3.org/2000/svg" width="41" height="41" fill="none" viewBox="0 0 41 41"><g clip-path="url(#clip0_10_17795)"><path fill="#03AC78" d="M35.875 13.6667V11.9583L30.75 15.375L25.625 11.9583V13.6667L30.75 17.0833L35.875 13.6667ZM37.5833 5.125H3.41667C1.5375 5.125 0 6.6625 0 8.54167V32.4583C0 34.3375 1.5375 35.875 3.41667 35.875H37.5833C39.4625 35.875 40.9829 34.3375 40.9829 32.4583L41 8.54167C41 6.6625 39.4625 5.125 37.5833 5.125ZM13.6667 10.25C16.5025 10.25 18.7917 12.5392 18.7917 15.375C18.7917 18.2108 16.5025 20.5 13.6667 20.5C10.8308 20.5 8.54167 18.2108 8.54167 15.375C8.54167 12.5392 10.8308 10.25 13.6667 10.25ZM23.9167 30.75H3.41667V29.0417C3.41667 25.625 10.25 23.7458 13.6667 23.7458C17.0833 23.7458 23.9167 25.625 23.9167 29.0417V30.75ZM37.5833 20.5H23.9167V10.25H37.5833V20.5Z"/></g><defs><clipPath id="clip0_10_17795"><rect width="41" height="41" fill="#fff"/></clipPath></defs></svg>