<svg xmlns="http://www.w3.org/2000/svg" width="24" height="23" fill="none" viewBox="0 0 24 23"><path fill="#167EE6" d="M22.8293 9.50053L13.4474 9.50008C13.0331 9.50008 12.6973 9.83583 12.6973 10.2501V13.2471C12.6973 13.6612 13.0331 13.9971 13.4473 13.9971H18.7306C18.1521 15.4984 17.0723 16.7557 15.6947 17.5546L17.9475 21.4542C21.5612 19.3643 23.6977 15.6974 23.6977 11.5925C23.6977 11.0081 23.6546 10.5902 23.5685 10.1198C23.503 9.76234 23.1926 9.50053 22.8293 9.50053Z"/><path fill="#12B347" d="M12.1968 18.5C9.61127 18.5 7.35412 17.0874 6.14185 14.997L2.24219 17.2446C4.2267 20.6839 7.94433 23 12.1968 23C14.2829 23 16.2514 22.4383 17.9471 21.4595V21.4542L15.6943 17.5545C14.6638 18.1521 13.4714 18.5 12.1968 18.5Z"/><path fill="#0F993E" d="M17.9475 21.4595V21.4542L15.6947 17.5545C14.6643 18.1521 13.4719 18.5 12.1973 18.5V23C14.2834 23 16.2519 22.4383 17.9475 21.4595Z"/><path fill="#FFD500" d="M5.19747 11.5001C5.19747 10.2257 5.54527 9.03342 6.1428 8.00305L2.24314 5.75542C1.2589 7.4457 0.697266 9.4087 0.697266 11.5001C0.697266 13.5915 1.2589 15.5545 2.24314 17.2447L6.1428 14.9971C5.54527 13.9667 5.19747 12.7745 5.19747 11.5001Z"/><path fill="#FF4B26" d="M12.1966 4.5C13.8826 4.5 15.4313 5.09908 16.641 6.09558C16.9394 6.3414 17.3731 6.32365 17.6465 6.0503L19.7701 3.92685C20.0802 3.61671 20.0581 3.10904 19.7268 2.82163C17.7001 1.06344 15.063 0 12.1966 0C7.94408 0 4.22645 2.31604 2.24194 5.75535L6.1416 8.00297C7.35387 5.91262 9.61103 4.5 12.1966 4.5Z"/><path fill="#D93F21" d="M16.6417 6.09558C16.9401 6.3414 17.3739 6.32365 17.6472 6.0503L19.7708 3.92685C20.0809 3.61671 20.0588 3.10904 19.7275 2.82163C17.7008 1.06339 15.0637 0 12.1973 0V4.5C13.8833 4.5 15.432 5.09908 16.6417 6.09558Z"/></svg>