<svg xmlns="http://www.w3.org/2000/svg" width="12" height="13" fill="none" viewBox="0 0 12 13"><path fill="#991B1B" fill-rule="evenodd" d="M5.11623 2.24622C5.49184 1.53674 6.5082 1.53674 6.88381 2.24622L10.5534 9.17759C10.9059 9.84359 10.4231 10.6455 9.66957 10.6455H2.33047C1.5769 10.6455 1.0941 9.84359 1.44668 9.17759L5.11623 2.24622ZM9.66957 9.64548L6.00002 2.71411L2.33047 9.64548L9.66957 9.64548Z" clip-rule="evenodd"/><path fill="#991B1B" d="M5.50002 5.14548C5.50002 4.86934 5.72388 4.64548 6.00002 4.64548C6.27616 4.64548 6.50002 4.86934 6.50002 5.14548V7.14548C6.50002 7.42162 6.27616 7.64548 6.00002 7.64548C5.72388 7.64548 5.50002 7.42162 5.50002 7.14548V5.14548Z"/><path fill="#991B1B" d="M6.50002 8.64548C6.50002 8.92162 6.27616 9.14548 6.00002 9.14548C5.72388 9.14548 5.50002 8.92162 5.50002 8.64548C5.50002 8.36934 5.72388 8.14548 6.00002 8.14548C6.27616 8.14548 6.50002 8.36934 6.50002 8.64548Z"/></svg>