<svg xmlns="http://www.w3.org/2000/svg" width="21" height="20" fill="none" viewBox="0 0 21 20"><path fill="#27272A" d="M10.4272 1.7394C13.0169 1.7394 13.3236 1.74906 14.3467 1.79548C14.9618 1.80297 15.5711 1.91538 16.148 2.12783C16.5664 2.28841 16.9464 2.5344 17.2635 2.84997C17.5805 3.16554 17.8277 3.54369 17.9891 3.96008C18.2025 4.53427 18.3155 5.14063 18.323 5.75281C18.3692 6.77098 18.3794 7.07621 18.3794 9.65359C18.3794 12.231 18.3697 12.5362 18.323 13.5544C18.3155 14.1666 18.2025 14.7729 17.9891 15.3471C17.8277 15.7635 17.5805 16.1416 17.2635 16.4572C16.9464 16.7728 16.5664 17.0188 16.148 17.1794C15.5711 17.3918 14.9618 17.5042 14.3467 17.5117C13.3241 17.5577 13.0174 17.5678 10.4272 17.5678C7.83696 17.5678 7.53028 17.5581 6.50768 17.5117C5.89256 17.5042 5.28329 17.3918 4.70635 17.1794C4.28796 17.0188 3.90799 16.7728 3.59091 16.4572C3.27383 16.1416 3.02665 15.7635 2.8653 15.3471C2.65184 14.7729 2.53889 14.1666 2.53136 13.5544C2.48517 12.5362 2.47501 12.231 2.47501 9.65359C2.47501 7.07621 2.48471 6.77098 2.53136 5.75281C2.53889 5.14063 2.65184 4.53427 2.8653 3.96008C3.02665 3.54369 3.27383 3.16554 3.59091 2.84997C3.90799 2.5344 4.28796 2.28841 4.70635 2.12783C5.28329 1.91538 5.89256 1.80297 6.50768 1.79548C7.53074 1.74952 7.83743 1.7394 10.4272 1.7394ZM10.4272 0C7.79447 0 7.46284 0.0110321 6.42823 0.0579188C5.6232 0.0738547 4.82671 0.225553 4.07265 0.50656C3.42579 0.749114 2.83989 1.12922 2.35585 1.62035C1.86191 2.10226 1.47966 2.68568 1.23579 3.32987C0.953433 4.08033 0.801008 4.87302 0.784995 5.6742C0.738807 6.70295 0.727722 7.033 0.727722 9.65313C0.727722 12.2733 0.738807 12.6033 0.785919 13.633C0.801931 14.4342 0.954357 15.2269 1.23671 15.9773C1.48031 16.6214 1.86225 17.2048 2.35585 17.6868C2.84016 18.1781 3.42638 18.5582 4.07357 18.8006C4.82764 19.0816 5.62412 19.2333 6.42916 19.2493C7.46377 19.2952 7.79401 19.3072 10.4281 19.3072C13.0622 19.3072 13.3924 19.2962 14.4271 19.2493C15.2321 19.2333 16.0286 19.0816 16.7826 18.8006C17.4268 18.5521 18.0117 18.1726 18.5 17.6863C18.9883 17.2 19.3693 16.6176 19.6186 15.9764C19.9009 15.2259 20.0534 14.4333 20.0694 13.6321C20.1156 12.6033 20.1266 12.2733 20.1266 9.65313C20.1266 7.033 20.1156 6.70295 20.0684 5.67329C20.0524 4.8721 19.9 4.07941 19.6177 3.32895C19.3741 2.68485 18.9921 2.10143 18.4985 1.61943C18.0142 1.12819 17.428 0.748076 16.7808 0.50564C16.0267 0.224633 15.2302 0.0729354 14.4252 0.0569995C13.3915 0.0110322 13.0599 0 10.4272 0Z"/><path fill="#27272A" d="M10.4254 4.69629C9.4403 4.69629 8.47729 4.98702 7.65818 5.53171C6.83908 6.07641 6.20066 6.8506 5.82367 7.7564C5.44668 8.66219 5.34804 9.6589 5.54023 10.6205C5.73242 11.5821 6.2068 12.4653 6.90339 13.1586C7.59999 13.8519 8.4875 14.324 9.4537 14.5153C10.4199 14.7065 11.4214 14.6084 12.3315 14.2332C13.2417 13.858 14.0196 13.2226 14.5669 12.4074C15.1142 11.5922 15.4063 10.6338 15.4063 9.6534C15.4063 8.3387 14.8816 7.07783 13.9475 6.14819C13.0134 5.21856 11.7464 4.69629 10.4254 4.69629ZM10.4254 12.8711C9.78597 12.8711 9.16087 12.6824 8.62918 12.3288C8.09749 11.9753 7.68309 11.4727 7.43838 10.8848C7.19367 10.2968 7.12964 9.64983 7.2544 9.02566C7.37915 8.40148 7.68708 7.82814 8.13924 7.37814C8.59141 6.92813 9.1675 6.62168 9.79467 6.49752C10.4218 6.37336 11.0719 6.43708 11.6627 6.68063C12.2535 6.92417 12.7584 7.33659 13.1137 7.86574C13.469 8.39489 13.6586 9.017 13.6586 9.6534C13.6586 10.5068 13.3179 11.3252 12.7116 11.9287C12.1053 12.5321 11.2829 12.8711 10.4254 12.8711Z"/><path fill="#27272A" d="M15.6038 5.65867C16.2466 5.65867 16.7678 5.14005 16.7678 4.5003C16.7678 3.86054 16.2466 3.34192 15.6038 3.34192C14.961 3.34192 14.4399 3.86054 14.4399 4.5003C14.4399 5.14005 14.961 5.65867 15.6038 5.65867Z"/></svg>