<svg xmlns="http://www.w3.org/2000/svg" width="16" height="14" fill="none" viewBox="0 0 16 14"><path fill="#27272A" d="M15.9991 2.35396C15.3991 2.61934 14.7658 2.7852 14.0992 2.88472C14.7658 2.48665 15.2991 1.85637 15.5325 1.09341C14.8992 1.45831 14.1992 1.72369 13.4326 1.88955C12.8326 1.25927 11.966 0.861206 11.0327 0.861206C9.23282 0.861206 7.76623 2.32079 7.76623 4.11209C7.76623 4.37747 7.79957 4.60967 7.86623 4.84188C5.16638 4.70919 2.73318 3.41547 1.09994 1.42514C0.833287 1.92272 0.666629 2.45348 0.666629 3.05058C0.666629 4.17843 1.23326 5.1736 2.13321 5.7707C1.59991 5.73753 1.09994 5.60484 0.633298 5.37264V5.40581C0.633298 6.99808 1.76657 8.32497 3.26648 8.62352C2.99983 8.68987 2.69985 8.72304 2.39987 8.72304C2.19988 8.72304 1.96656 8.68987 1.76657 8.65669C2.19988 9.95041 3.39981 10.9124 4.83306 10.9124C3.69979 11.7749 2.29987 12.3056 0.766624 12.3056C0.499972 12.3056 0.23332 12.3056 0 12.2725C1.46658 13.2013 3.16649 13.7321 5.03305 13.7321C11.066 13.7321 14.3659 8.75621 14.3659 4.44381C14.3659 4.31112 14.3659 4.14526 14.3659 4.01257C14.9992 3.58133 15.5658 3.01741 15.9991 2.35396Z"/></svg>