<svg xmlns="http://www.w3.org/2000/svg" width="20" height="19" fill="none" viewBox="0 0 20 19"><path fill="#27272A" fill-rule="evenodd" d="M9.74219 0C4.60059 0 0.464111 4.11672 0.464111 9.23377C0.464111 13.312 3.13156 16.7747 6.80413 18.0058C7.26803 18.0828 7.42267 17.8135 7.42267 17.5442C7.42267 17.3133 7.42267 16.7362 7.42267 15.9667C4.83254 16.5438 4.29132 14.7356 4.29132 14.7356C3.86607 13.6583 3.24753 13.389 3.24753 13.389C2.39704 12.8119 3.32485 12.8119 3.32485 12.8119C4.25266 12.8888 4.75522 13.7737 4.75522 13.7737C5.56705 15.1972 6.92011 14.774 7.46133 14.5432C7.53864 13.9276 7.7706 13.5429 8.04121 13.312C5.9923 13.0812 3.82741 12.2732 3.82741 8.7336C3.82741 7.73328 4.17534 6.88685 4.79388 6.27127C4.71656 6.04042 4.36863 5.11704 4.8712 3.80893C4.8712 3.80893 5.64437 3.57808 7.42267 4.77078C8.15718 4.57841 8.96902 4.46299 9.74219 4.46299C10.5154 4.46299 11.3272 4.57841 12.0617 4.77078C13.84 3.57808 14.6132 3.80893 14.6132 3.80893C15.1157 5.07857 14.8065 6.00195 14.6905 6.27127C15.2704 6.92532 15.657 7.73328 15.657 8.7336C15.657 12.2732 13.4921 13.0427 11.4045 13.2735C11.7524 13.5429 12.023 14.12 12.023 14.9664C12.023 16.1976 12.023 17.1979 12.023 17.5057C12.023 17.7365 12.1777 18.0443 12.6802 17.9674C16.3528 16.7747 19.0203 13.312 19.0203 9.23377C19.0203 4.11672 14.8838 0 9.74219 0Z" clip-rule="evenodd"/></svg>