<svg xmlns="http://www.w3.org/2000/svg" width="41" height="37" fill="none" viewBox="0 0 41 37"><path fill="#000" d="M23.4286 0C13.7252 0 5.85714 8.15222 5.85714 18.2059H0L7.59476 26.075L7.73143 26.3582L15.619 18.2059H9.7619C9.7619 10.3774 15.8729 4.04577 23.4286 4.04577C30.9843 4.04577 37.0952 10.3774 37.0952 18.2059C37.0952 26.0345 30.9843 32.3661 23.4286 32.3661C19.6605 32.3661 16.2438 30.768 13.7838 28.199L11.0114 31.0715C14.1938 34.3688 18.5671 36.4119 23.4286 36.4119C33.1319 36.4119 41 28.2597 41 18.2059C41 8.15222 33.1319 0 23.4286 0ZM21.4762 10.1144V20.2288L29.8324 25.3669L31.2381 22.9193L24.4048 18.7117V10.1144H21.4762Z"/></svg>